<?xml version="1.0" encoding="utf-8"?>
<!-- Svg Vector Icons : http://www.onlinewebfonts.com/icon -->
<!DOCTYPE svg PUBLIC "-//W3C//DTD SVG 1.1//EN" "http://www.w3.org/Graphics/SVG/1.1/DTD/svg11.dtd">
<svg version="1.1" xmlns="http://www.w3.org/2000/svg" xmlns:xlink="http://www.w3.org/1999/xlink" x="0px" y="0px" viewBox="0 0 1000 1000" enable-background="new 0 0 1000 1000" xml:space="preserve">
<metadata> Svg Vector Icons : http://www.onlinewebfonts.com/icon </metadata>
<g><g transform="translate(0.000000,511.000000) scale(0.100000,-0.100000)"><path d="M233.8,4991.7c-140-60.6-133.7,0-133.7-1324.8V2467.5l60.6-60.6l60.6-60.6h1199.4c1074,0,1203.6,4.2,1247.5,33.4c104.5,75.2,106.6,89.8,106.6,1306c0,1255.8,2.1,1237-135.8,1301.8c-60.6,29.3-213.1,33.4-1205.7,33.4C524.2,5018.8,286,5014.7,233.8,4991.7z M2315,3673.2v-888.1h-888.1H538.8v888.1v888.1h888.1H2315V3673.2z"/><path d="M3783.9,4987.5c-135.8-66.8-133.7-45.9-127.5-1345.7l6.3-1174.3l69-60.6l66.9-60.6H5000h1199.4l58.5,50.1l58.5,50.2l10.4,1168.1c6.3,641.5,4.2,1195.2-4.2,1230.7c-10.4,35.5-41.8,85.7-71,114.9l-54.3,50.2l-1172.2,4.2C3990.8,5020.9,3842.4,5016.8,3783.9,4987.5z M5888.1,3673.2v-888.1H5000H4112v888.1v888.1H5000h888.1V3673.2z"/><path d="M7357,4989.6c-133.7-58.5-131.6-33.4-131.6-1314.3c0-854.6,6.3-1174.3,25.1-1214c52.2-114.9,39.7-114.9,1310.2-114.9c796.1,0,1186.9,6.3,1220.3,23c27.2,12.5,64.8,48.1,83.6,81.5c31.3,52.2,35.5,173.4,35.5,1222.4c0,1289.2,2.1,1260-135.8,1318.5C9659.7,5035.6,7457.3,5033.5,7357,4989.6z M9461.2,3673.2v-888.1h-898.5h-898.5v888.1v888.1h898.5h898.5V3673.2z"/><path d="M215,1422.7c-23-12.5-58.5-41.8-77.3-66.9C104.2,1316.2,100,1218,100,110.5c0-1107.5,4.2-1205.7,37.6-1245.4c18.8-25.1,56.4-56.4,81.5-68.9c31.3-16.7,392.8-23,1207.7-23c1289.3,0,1260-2.1,1318.5,135.8c43.9,106.6,43.9,2296.4,0,2403c-58.5,140-27.2,135.8-1322.7,135.8C616.2,1445.7,244.2,1439.5,215,1422.7z M2315,110.5V-788h-888.1H538.8v898.5V1009h888.1H2315V110.5z"/><path d="M3765.1,1408.1c-35.5-23-75.2-71-89.8-108.7c-16.7-45.9-23-409.5-23-1193.1c0-1234.9,0-1237,123.3-1299.7c54.3-29.2,211-33.4,1224.5-33.4c1260,0,1249.5,0,1301.8,112.8c18.8,39.7,25.1,372,25.1,1224.5c2.1,1272.5,2.1,1260-114.9,1312.2c-39.7,18.8-359.4,25.1-1218.2,25.1C3886.3,1447.8,3825.7,1445.7,3765.1,1408.1z M5888.1,110.5V-788H5000H4112v898.5V1009H5000h888.1V110.5z"/><path d="M7296.4,1376.8l-71.1-71V110.5v-1195.2l71.1-71l71-71h1195.2h1195.2l71,71l71.1,71V110.5v1195.2l-71.1,71l-71,71.1H8562.7H7367.5L7296.4,1376.8z M9450.8,110.5v-888.1h-888.1h-888.1l-6.3,867.2c-2.1,476.4,0,879.7,6.3,894.3c6.3,20.9,196.4,25.1,892.2,20.9l883.9-6.3V110.5z"/><path d="M160.6-2185.9l-60.6-60.6v-1203.6v-1203.6l60.6-66.9l60.6-68.9l1174.3-6.3c1038.5-4.2,1180.6-2.1,1243.3,29.2c137.9,64.8,135.8,46,135.8,1301.8c0,1216.1-2.1,1230.7-106.6,1305.9c-43.9,29.3-173.4,33.4-1247.5,33.4H221.2L160.6-2185.9z M2315-3452.2v-888.1h-888.1H538.8v888.1v888.1h888.1H2315V-3452.2z"/><path d="M3731.7-2185.9l-69-60.6l-6.3-1172.2c-6.3-1303.9-8.4-1283,127.5-1347.8c69-31.3,181.8-33.4,1245.4-29.2l1172.2,6.3l56.4,58.5l58.5,56.4l10.4,1166c6.3,639.4,2.1,1193.1-6.3,1230.8c-8.4,37.6-39.7,85.7-71.1,110.7c-52.2,41.8-77.3,41.8-1251.6,41.8H3798.5L3731.7-2185.9z M5888.1-3452.2v-888.1H5000H4112v888.1v888.1H5000h888.1V-3452.2z"/><path d="M7331.9-2154.6c-106.6-58.5-104.5-43.9-106.6-1293.4c0-1295.5-4.2-1264.2,135.8-1322.7c106.6-43.9,2296.4-43.9,2403,0c137.9,58.5,135.8,29.2,135.8,1318.5c0,1260,0,1249.5-114.9,1301.8C9701.5-2112.8,7400.9-2117,7331.9-2154.6z M9461.2-3452.2v-888.1h-898.5h-898.5v888.1v888.1h898.5h898.5V-3452.2z"/></g></g>
</svg>